<svg data-v-423bf9ae="" xmlns="http://www.w3.org/2000/svg" viewBox="0 0 509 90" class="iconLeftSlogan"><g data-v-423bf9ae="" id="5e7974cd-a73a-47ca-bedd-d91d93a2461f" fill="#FFFFFF" transform="matrix(5.602240876404433,0,0,5.602240876404433,104.78990119790305,-17.198878401315945)"><path d="M9.05 11.80L9.05 12.69Q8.69 13.01 8.25 13.22Q7.81 13.43 7.35 13.55Q6.90 13.68 6.46 13.73Q6.02 13.78 5.66 13.78L5.66 13.78Q4.66 13.78 3.79 13.43Q2.93 13.08 2.29 12.44Q1.65 11.81 1.29 10.90Q0.93 9.99 0.93 8.89L0.93 8.89Q0.93 8.04 1.14 7.31Q1.35 6.58 1.73 5.98Q2.11 5.39 2.63 4.92Q3.14 4.46 3.76 4.14Q4.38 3.82 5.07 3.66Q5.76 3.49 6.48 3.49L6.48 3.49Q6.71 3.49 7.01 3.51Q7.30 3.53 7.64 3.58Q7.97 3.62 8.33 3.69Q8.69 3.77 9.06 3.88L9.06 3.88L8.78 5.20L8.65 5.27Q7.94 4.94 7.32 4.82Q6.70 4.70 6.25 4.70L6.25 4.70Q5.47 4.70 4.81 4.99Q4.16 5.29 3.68 5.81Q3.21 6.33 2.95 7.04Q2.69 7.75 2.69 8.56L2.69 8.56Q2.69 9.36 2.93 10.08Q3.18 10.79 3.65 11.34Q4.13 11.88 4.82 12.20Q5.51 12.52 6.41 12.52L6.41 12.52Q6.97 12.52 7.65 12.37Q8.33 12.21 9.05 11.80L9.05 11.80ZM10.99 13.64L10.99 6.40L12.65 6.40L12.65 13.64L10.99 13.64ZM11.81 4.97L11.81 4.97Q11.59 4.97 11.41 4.90Q11.23 4.83 11.10 4.70Q10.96 4.58 10.89 4.41Q10.82 4.24 10.82 4.04L10.82 4.04Q10.82 3.83 10.90 3.66Q10.98 3.49 11.12 3.35Q11.26 3.22 11.45 3.14Q11.63 3.07 11.85 3.07L11.85 3.07Q12.07 3.07 12.24 3.14Q12.42 3.22 12.55 3.35Q12.68 3.47 12.76 3.65Q12.83 3.82 12.83 4.02L12.83 4.02Q12.83 4.22 12.75 4.40Q12.67 4.57 12.53 4.70Q12.39 4.83 12.21 4.90Q12.02 4.97 11.81 4.97ZM16.75 13.64L14.16 6.40L15.99 6.40L17.42 11.13L17.71 12.39L17.85 12.39L18.13 11.13L19.58 6.40L21.14 6.40L18.55 13.64L16.75 13.64ZM22.63 13.64L22.63 6.40L24.29 6.40L24.29 13.64L22.63 13.64ZM23.46 4.97L23.46 4.97Q23.24 4.97 23.06 4.90Q22.88 4.83 22.75 4.70Q22.61 4.58 22.54 4.41Q22.47 4.24 22.47 4.04L22.47 4.04Q22.47 3.83 22.55 3.66Q22.63 3.49 22.77 3.35Q22.91 3.22 23.10 3.14Q23.28 3.07 23.50 3.07L23.50 3.07Q23.71 3.07 23.89 3.14Q24.07 3.22 24.20 3.35Q24.33 3.47 24.40 3.65Q24.48 3.82 24.48 4.02L24.48 4.02Q24.48 4.22 24.40 4.40Q24.32 4.57 24.18 4.70Q24.04 4.83 23.86 4.90Q23.67 4.97 23.46 4.97ZM31.83 12.15L31.83 12.98Q31.34 13.37 30.75 13.58Q30.15 13.78 29.47 13.78L29.47 13.78Q28.70 13.78 28.09 13.52Q27.47 13.27 27.04 12.81Q26.61 12.36 26.38 11.73Q26.15 11.09 26.15 10.34L26.15 10.34Q26.15 9.44 26.46 8.69Q26.78 7.94 27.32 7.40Q27.86 6.86 28.60 6.56Q29.34 6.26 30.19 6.26L30.19 6.26Q30.37 6.26 30.58 6.28Q30.80 6.30 31.02 6.33Q31.24 6.36 31.46 6.42Q31.67 6.48 31.86 6.56L31.86 6.56L31.56 7.83L31.42 7.90Q31.29 7.81 31.13 7.73Q30.96 7.64 30.77 7.58Q30.58 7.52 30.37 7.48Q30.17 7.44 29.97 7.44L29.97 7.44Q29.53 7.44 29.15 7.62Q28.77 7.79 28.49 8.11Q28.21 8.44 28.04 8.92Q27.88 9.39 27.88 9.99L27.88 9.99Q27.88 10.62 28.05 11.09Q28.23 11.57 28.55 11.88Q28.86 12.20 29.29 12.36Q29.72 12.52 30.23 12.52L30.23 12.52Q30.54 12.52 30.95 12.45Q31.35 12.37 31.83 12.15L31.83 12.15ZM36.60 12.58L36.60 12.58Q37.01 12.58 37.36 12.47Q37.71 12.37 37.97 12.17Q38.23 11.98 38.38 11.69Q38.53 11.41 38.53 11.05L38.53 11.05Q38.53 10.63 38.33 10.34Q38.12 10.04 37.79 9.82Q37.45 9.60 37.03 9.42Q36.61 9.24 36.17 9.06Q35.72 8.87 35.30 8.65Q34.88 8.43 34.54 8.12Q34.21 7.81 34.01 7.38Q33.80 6.95 33.80 6.34L33.80 6.34Q33.80 5.67 34.06 5.15Q34.31 4.62 34.77 4.25Q35.23 3.88 35.86 3.69Q36.50 3.49 37.26 3.49L37.26 3.49Q37.49 3.49 37.78 3.51Q38.08 3.53 38.41 3.58Q38.75 3.62 39.11 3.69Q39.48 3.77 39.85 3.88L39.85 3.88L39.58 5.20L39.45 5.27Q39.09 5.11 38.75 5.00Q38.40 4.89 38.10 4.82Q37.79 4.75 37.53 4.72Q37.26 4.70 37.06 4.70L37.06 4.70Q36.69 4.70 36.38 4.79Q36.07 4.87 35.86 5.04Q35.64 5.22 35.52 5.47Q35.40 5.71 35.40 6.04L35.40 6.04Q35.40 6.47 35.61 6.77Q35.81 7.08 36.15 7.31Q36.48 7.54 36.90 7.72Q37.33 7.90 37.78 8.09Q38.23 8.28 38.65 8.50Q39.08 8.72 39.41 9.02Q39.74 9.32 39.95 9.72Q40.15 10.13 40.15 10.70L40.15 10.70Q40.15 11.33 39.89 11.89Q39.62 12.46 39.13 12.88Q38.64 13.30 37.96 13.54Q37.28 13.78 36.44 13.78L36.44 13.78Q36.09 13.78 35.72 13.74Q35.34 13.69 34.95 13.61Q34.56 13.53 34.18 13.41Q33.80 13.28 33.44 13.13L33.44 13.13L33.71 11.79L33.85 11.72Q34.58 12.11 35.27 12.35Q35.96 12.58 36.60 12.58ZM48.10 12.15L48.10 12.98Q47.80 13.19 47.45 13.34Q47.10 13.49 46.73 13.59Q46.36 13.69 46.00 13.74Q45.63 13.78 45.30 13.78L45.30 13.78Q44.54 13.78 43.89 13.55Q43.24 13.32 42.76 12.87Q42.27 12.41 42 11.75Q41.73 11.09 41.73 10.24L41.73 10.24Q41.73 9.33 42.03 8.59Q42.34 7.85 42.86 7.34Q43.37 6.82 44.05 6.54Q44.73 6.26 45.47 6.26L45.47 6.26Q46.09 6.26 46.62 6.46Q47.15 6.67 47.53 7.06Q47.92 7.46 48.14 8.05Q48.36 8.65 48.36 9.43L48.36 9.43Q48.36 9.63 48.34 9.84Q48.32 10.06 48.28 10.26L48.28 10.26L43.44 10.26Q43.44 10.81 43.64 11.24Q43.83 11.66 44.19 11.95Q44.54 12.23 45.04 12.38Q45.54 12.52 46.14 12.52L46.14 12.52Q46.31 12.52 46.54 12.51Q46.77 12.50 47.03 12.46Q47.29 12.41 47.56 12.34Q47.84 12.27 48.10 12.15L48.10 12.15ZM43.44 9.45L46.82 9.45Q46.82 8.96 46.69 8.58Q46.57 8.20 46.35 7.95Q46.13 7.70 45.84 7.57Q45.55 7.44 45.21 7.44L45.21 7.44Q44.84 7.44 44.52 7.59Q44.19 7.75 43.96 8.02Q43.72 8.29 43.58 8.65Q43.44 9.02 43.44 9.45L43.44 9.45ZM50.25 13.64L50.25 6.40L51.59 6.40L51.82 7.64Q52.06 7.42 52.36 7.17Q52.66 6.93 53.02 6.73Q53.38 6.53 53.77 6.40Q54.16 6.26 54.58 6.26L54.58 6.26Q55.08 6.26 55.49 6.45Q55.90 6.64 56.18 6.98Q56.47 7.31 56.63 7.79Q56.79 8.26 56.79 8.82L56.79 8.82L56.79 13.64L55.13 13.64L55.13 9.02Q55.13 8.65 55.02 8.37Q54.92 8.09 54.74 7.90Q54.56 7.72 54.31 7.62Q54.06 7.53 53.77 7.53L53.77 7.53Q53.27 7.53 52.81 7.79Q52.36 8.05 51.91 8.47L51.91 8.47L51.91 13.64L50.25 13.64ZM58.61 13.30L58.91 12.06L59.03 11.98Q59.29 12.13 59.59 12.24Q59.88 12.36 60.16 12.44Q60.45 12.52 60.72 12.56Q61.00 12.60 61.24 12.60L61.24 12.60Q61.86 12.60 62.21 12.34Q62.56 12.08 62.56 11.68L62.56 11.68Q62.56 11.40 62.40 11.22Q62.24 11.05 61.98 10.92Q61.71 10.79 61.38 10.70Q61.04 10.60 60.69 10.50Q60.34 10.39 60.01 10.25Q59.67 10.12 59.41 9.91Q59.14 9.69 58.98 9.39Q58.82 9.08 58.82 8.64L58.82 8.64Q58.82 8.14 59.04 7.70Q59.25 7.27 59.65 6.95Q60.05 6.63 60.62 6.45Q61.20 6.26 61.91 6.26L61.91 6.26Q62.08 6.26 62.32 6.28Q62.56 6.29 62.81 6.32Q63.07 6.35 63.33 6.40Q63.59 6.45 63.81 6.52L63.81 6.52L63.51 7.75L63.36 7.83Q63.16 7.73 62.92 7.66Q62.69 7.58 62.45 7.54Q62.21 7.49 61.99 7.47Q61.77 7.44 61.60 7.44L61.60 7.44Q61.00 7.44 60.66 7.68Q60.32 7.92 60.32 8.33L60.32 8.33Q60.32 8.61 60.48 8.79Q60.65 8.97 60.91 9.10Q61.17 9.22 61.52 9.31Q61.86 9.41 62.21 9.51Q62.56 9.62 62.90 9.75Q63.25 9.89 63.51 10.10Q63.77 10.32 63.94 10.62Q64.10 10.93 64.10 11.38L64.10 11.38Q64.10 11.89 63.88 12.33Q63.66 12.77 63.26 13.09Q62.86 13.41 62.29 13.60Q61.72 13.78 61.03 13.78L61.03 13.78Q60.46 13.78 59.83 13.66Q59.19 13.54 58.61 13.30L58.61 13.30ZM71.85 12.15L71.85 12.98Q71.55 13.19 71.20 13.34Q70.85 13.49 70.49 13.59Q70.12 13.69 69.75 13.74Q69.38 13.78 69.06 13.78L69.06 13.78Q68.30 13.78 67.65 13.55Q66.99 13.32 66.51 12.87Q66.03 12.41 65.75 11.75Q65.48 11.09 65.48 10.24L65.48 10.24Q65.48 9.33 65.79 8.59Q66.10 7.85 66.61 7.34Q67.13 6.82 67.81 6.54Q68.49 6.26 69.23 6.26L69.23 6.26Q69.84 6.26 70.37 6.46Q70.90 6.67 71.29 7.06Q71.67 7.46 71.89 8.05Q72.11 8.65 72.11 9.43L72.11 9.43Q72.11 9.63 72.10 9.84Q72.08 10.06 72.04 10.26L72.04 10.26L67.20 10.26Q67.20 10.81 67.39 11.24Q67.59 11.66 67.94 11.95Q68.30 12.23 68.80 12.38Q69.30 12.52 69.90 12.52L69.90 12.52Q70.07 12.52 70.30 12.51Q70.53 12.50 70.79 12.46Q71.05 12.41 71.32 12.34Q71.59 12.27 71.85 12.15L71.85 12.15ZM67.20 9.45L70.57 9.45Q70.57 8.96 70.45 8.58Q70.32 8.20 70.10 7.95Q69.88 7.70 69.59 7.57Q69.30 7.44 68.97 7.44L68.97 7.44Q68.59 7.44 68.27 7.59Q67.95 7.75 67.71 8.02Q67.47 8.29 67.33 8.65Q67.20 9.02 67.20 9.45L67.20 9.45Z"></path></g><g data-v-423bf9ae="" id="ca467b33-0622-4b00-99e1-f2a45b7b385f" transform="matrix(2.8125,0,0,2.8125,0,0)" stroke="none" fill="#81E291"><path d="m15.965 16.258.707-.707 10.39 10.39-.707.707z"></path><path d="M4.935 26.357 26.018 5.274l.707.707L5.642 27.065z"></path><path d="M31 1v4.194h-4.194V1zm1-1h-6.194v6.194H32zM31 26.806V31h-4.194v-4.194zm1-1h-6.194V32H32zM5.194 26.806V31H1v-4.194zm1-1H0V32h6.194z"></path></g><g data-v-423bf9ae="" id="df3d162f-0644-4915-98af-8886182cba4d" fill="#FFFFFF" transform="matrix(0.6833183734808189,0,0,0.6833183734808189,109.760837155339,56.11191730198663)"><path d="M0.35 13.60L0.35 13.60L0.55 11.66L0.88 11.71L1.07 13.21Q1.30 13.64 1.83 13.89Q2.36 14.14 2.96 14.14L2.96 14.14Q3.64 14.14 4.12 13.74Q4.60 13.33 4.60 12.61L4.60 12.61Q4.60 12.20 4.39 11.83Q4.17 11.46 3.82 11.18Q3.48 10.90 3.06 10.63Q2.64 10.36 2.22 10.07Q1.80 9.79 1.46 9.48Q1.11 9.17 0.90 8.75Q0.68 8.33 0.68 7.84L0.68 7.84Q0.68 6.88 1.38 6.29Q2.07 5.71 2.95 5.71L2.95 5.71Q3.54 5.71 4.08 5.90Q4.62 6.09 4.95 6.46L4.95 6.46L4.72 8.58L4.41 8.53L4.22 6.87Q4.04 6.54 3.62 6.32Q3.21 6.10 2.78 6.10L2.78 6.10Q2.18 6.10 1.77 6.48Q1.35 6.87 1.35 7.52L1.35 7.52Q1.35 7.96 1.58 8.35Q1.80 8.74 2.15 9.03Q2.50 9.32 2.93 9.61Q3.35 9.89 3.78 10.17Q4.20 10.45 4.56 10.75Q4.91 11.05 5.13 11.45Q5.35 11.85 5.35 12.29L5.35 12.29Q5.35 13.28 4.60 13.93Q3.85 14.57 2.60 14.57L2.60 14.57Q1.89 14.57 1.29 14.30Q0.69 14.03 0.35 13.60ZM14.29 6.36L13.07 6.18L13.12 5.89L19.31 5.89L19.10 8.07L18.79 8.03L18.66 6.24L15.00 6.24L15.00 9.89L17.29 9.89L17.55 8.94L17.92 8.89L17.69 11.55L17.34 11.61L17.23 10.26L15.00 10.26L15.00 14.03L18.85 14.03L19.35 12.19L19.63 12.26L19.43 14.40L13.09 14.40L13.13 14.11L14.29 13.90L14.29 6.36ZM28.59 6.36L27.32 6.14L27.38 5.89L29.45 5.89L34.17 13.17L34.17 6.33L32.92 6.16L32.96 5.89L35.86 5.89L35.81 6.16L34.67 6.32L34.67 14.44L34.30 14.52L29.09 6.65L29.09 13.95L30.35 14.08L30.28 14.40L27.41 14.40L27.45 14.11L28.59 13.90L28.59 6.36ZM45.44 6.19L45.44 14.03L46.67 14.03Q48.47 14.03 49.57 12.95Q50.67 11.87 50.67 10.12L50.67 10.12Q50.67 8.20 49.62 7.18Q48.56 6.16 46.63 6.16L46.63 6.16Q45.63 6.16 45.44 6.19L45.44 6.19ZM46.48 14.40L43.54 14.40L43.59 14.11L44.75 13.90L44.75 6.51L43.57 6.36L43.64 6.12Q45.73 5.79 46.88 5.79L46.88 5.79Q47.84 5.79 48.62 6.03Q49.40 6.26 49.91 6.66Q50.42 7.05 50.76 7.59Q51.11 8.13 51.26 8.71Q51.41 9.29 51.41 9.92L51.41 9.92Q51.41 10.64 51.24 11.28Q51.06 11.93 50.68 12.50Q50.30 13.08 49.73 13.49Q49.17 13.91 48.34 14.15Q47.51 14.40 46.48 14.40L46.48 14.40ZM73.10 6.98L71.73 10.75L74.42 10.75L73.10 6.98ZM71.78 14.40L69.05 14.40L69.08 14.11L70.05 13.90L73.05 5.82L73.41 5.73L76.25 13.95L77.15 14.08L77.10 14.39L74.30 14.39L74.36 14.10L75.50 13.90L74.55 11.13L71.59 11.13L70.58 13.95L71.84 14.08L71.78 14.40ZM96.57 6.18L96.57 10.11L98.12 10.11Q98.81 9.86 99.26 9.28Q99.72 8.70 99.72 8.02L99.72 8.02Q99.72 7.11 99.10 6.63Q98.49 6.15 97.40 6.15L97.40 6.15L96.57 6.18ZM97.95 14.40L94.75 14.40L94.80 14.11L95.87 13.90L95.87 6.51L94.77 6.37L94.83 6.13Q96.66 5.83 97.74 5.83L97.74 5.83Q98.51 5.83 99.11 6.05Q99.72 6.27 100.10 6.73Q100.47 7.19 100.47 7.83L100.47 7.83Q100.47 8.57 100.05 9.14Q99.62 9.72 98.59 10.23L98.59 10.23L98.59 10.23L99.91 12.19Q100.62 13.23 100.96 13.58Q101.31 13.92 101.69 14.05L101.69 14.05L102.02 14.16L101.98 14.42Q101.68 14.52 101.34 14.52L101.34 14.52Q101.06 14.52 100.80 14.40Q100.55 14.28 100.31 14.01Q100.06 13.75 99.88 13.48Q99.70 13.22 99.42 12.77L99.42 12.77L98.03 10.49L96.57 10.49L96.57 13.95L98.01 14.08L97.95 14.40ZM110.92 6.33L109.68 6.16L109.71 5.89L112.81 5.89L112.79 6.16L111.63 6.32L111.63 11.01Q111.63 11.87 111.81 12.49Q111.99 13.10 112.34 13.45Q112.69 13.79 113.14 13.95Q113.59 14.11 114.17 14.11L114.17 14.11Q115.35 14.11 115.99 13.40Q116.63 12.68 116.63 11.33L116.63 11.33L116.63 6.33L115.36 6.16L115.40 5.89L118.30 5.89L118.25 6.16L117.11 6.32L117.09 11.05Q117.09 12.78 116.35 13.68Q115.61 14.58 113.95 14.58L113.95 14.58Q113.45 14.58 113.03 14.49Q112.60 14.40 112.21 14.16Q111.81 13.93 111.53 13.56Q111.25 13.19 111.09 12.60Q110.92 12.01 110.92 11.24L110.92 11.24L110.92 6.33ZM128.79 14.40L125.96 14.40L125.99 14.17L127.13 13.96L127.70 6.36L126.44 6.14L126.49 5.89L128.67 5.89L129.16 7.18L131.30 12.84L133.75 6.88L134.17 5.89L136.40 5.89L136.36 6.14L135.19 6.34L135.56 14.01L136.79 14.12L136.78 14.40L133.62 14.40L133.66 14.17L134.83 13.96L134.44 6.41L131.26 13.99L130.92 14.05L128.13 6.53L127.59 14.01L128.83 14.12L128.79 14.40ZM145.27 9.75L145.27 9.75Q145.27 11.03 145.63 12.01Q146.00 13.00 146.71 13.57Q147.43 14.14 148.41 14.14L148.41 14.14Q148.98 14.14 149.47 13.92Q149.97 13.70 150.31 13.33Q150.66 12.96 150.90 12.49Q151.14 12.01 151.26 11.50Q151.38 10.99 151.38 10.48L151.38 10.48Q151.38 8.50 150.52 7.29Q149.67 6.07 148.22 6.07L148.22 6.07Q147.64 6.07 147.15 6.28Q146.66 6.49 146.32 6.85Q145.97 7.21 145.74 7.69Q145.50 8.16 145.38 8.69Q145.27 9.21 145.27 9.75ZM144.52 10.16L144.52 10.16Q144.52 8.16 145.62 6.92Q146.71 5.69 148.55 5.69L148.55 5.69Q149.69 5.69 150.50 6.27Q151.32 6.86 151.72 7.84Q152.11 8.83 152.11 10.11L152.11 10.11Q152.11 10.75 151.96 11.38Q151.81 12.00 151.49 12.58Q151.16 13.17 150.70 13.61Q150.24 14.05 149.56 14.32Q148.89 14.58 148.08 14.58L148.08 14.58Q147.03 14.58 146.20 13.98Q145.38 13.37 144.95 12.37Q144.52 11.37 144.52 10.16ZM161.05 6.33L159.81 6.16L159.84 5.89L162.94 5.89L162.91 6.16L161.76 6.32L161.76 11.01Q161.76 11.87 161.94 12.49Q162.12 13.10 162.47 13.45Q162.82 13.79 163.27 13.95Q163.71 14.11 164.30 14.11L164.30 14.11Q165.48 14.11 166.12 13.40Q166.76 12.68 166.76 11.33L166.76 11.33L166.76 6.33L165.49 6.16L165.53 5.89L168.43 5.89L168.38 6.16L167.24 6.32L167.22 11.05Q167.21 12.78 166.48 13.68Q165.74 14.58 164.08 14.58L164.08 14.58Q163.58 14.58 163.15 14.49Q162.73 14.40 162.33 14.16Q161.94 13.93 161.66 13.56Q161.38 13.19 161.22 12.60Q161.05 12.01 161.05 11.24L161.05 11.24L161.05 6.33ZM177.93 6.18L177.93 10.11L179.48 10.11Q180.17 9.86 180.63 9.28Q181.08 8.70 181.08 8.02L181.08 8.02Q181.08 7.11 180.47 6.63Q179.85 6.15 178.76 6.15L178.76 6.15L177.93 6.18ZM179.31 14.40L176.11 14.40L176.16 14.11L177.23 13.90L177.23 6.51L176.13 6.37L176.20 6.13Q178.02 5.83 179.10 5.83L179.10 5.83Q179.87 5.83 180.48 6.05Q181.08 6.27 181.46 6.73Q181.84 7.19 181.84 7.83L181.84 7.83Q181.84 8.57 181.41 9.14Q180.98 9.72 179.95 10.23L179.95 10.23L179.95 10.23L181.27 12.19Q181.98 13.23 182.32 13.58Q182.67 13.92 183.05 14.05L183.05 14.05L183.38 14.16L183.34 14.42Q183.05 14.52 182.70 14.52L182.70 14.52Q182.42 14.52 182.16 14.40Q181.91 14.28 181.67 14.01Q181.43 13.75 181.24 13.48Q181.06 13.22 180.78 12.77L180.78 12.77L179.40 10.49L177.93 10.49L177.93 13.95L179.38 14.08L179.31 14.40ZM191.18 13.92L191.18 13.92Q191.18 13.25 191.61 13.25Q192.04 13.25 192.04 13.92L192.04 13.92Q192.04 14.62 191.61 14.62Q191.18 14.62 191.18 13.92ZM209.76 10.27L209.76 10.27Q209.76 9.64 209.93 9.00Q210.10 8.36 210.45 7.78Q210.80 7.21 211.28 6.75Q211.76 6.30 212.42 6.04Q213.09 5.77 213.85 5.77L213.85 5.77Q214.59 5.77 215.29 5.94Q216.00 6.11 216.47 6.47L216.47 6.47L216.26 8.64L215.95 8.61L215.74 6.99Q215.48 6.65 214.93 6.41Q214.38 6.17 213.62 6.17L213.62 6.17Q212.21 6.17 211.38 7.27Q210.54 8.37 210.54 10.07L210.54 10.07Q210.54 10.69 210.65 11.25Q210.76 11.81 211.01 12.34Q211.26 12.87 211.64 13.25Q212.02 13.63 212.61 13.86Q213.20 14.09 213.93 14.09L213.93 14.09Q214.99 14.09 215.71 13.59L215.71 13.59L215.72 11.03L214.07 10.86L214.12 10.60L217.40 10.60L217.35 10.86L216.43 11.01L216.43 13.86Q215.78 14.25 215.04 14.39Q214.31 14.53 213.22 14.53L213.22 14.53Q212.52 14.53 211.88 14.23Q211.25 13.93 210.78 13.39Q210.31 12.85 210.04 12.04Q209.76 11.23 209.76 10.27ZM226.29 6.36L225.07 6.18L225.11 5.89L231.31 5.89L231.10 8.07L230.78 8.03L230.65 6.24L227.00 6.24L227.00 9.89L229.29 9.89L229.54 8.94L229.91 8.89L229.69 11.55L229.34 11.61L229.23 10.26L227.00 10.26L227.00 14.03L230.84 14.03L231.35 12.19L231.63 12.26L231.42 14.40L225.09 14.40L225.13 14.11L226.29 13.90L226.29 6.36ZM239.40 8.09L239.33 5.89L246.39 5.89L246.16 8.16L245.81 8.12L245.70 6.24L243.16 6.24L243.16 13.90L244.37 14.08L244.30 14.40L241.20 14.40L241.23 14.11L242.43 13.90L242.43 6.24L240.00 6.24L239.76 8.15L239.40 8.09ZM264.08 8.09L264.01 5.89L271.07 5.89L270.83 8.16L270.49 8.12L270.38 6.24L267.84 6.24L267.84 13.90L269.05 14.08L268.97 14.40L265.88 14.40L265.91 14.11L267.11 13.90L267.11 6.24L264.67 6.24L264.43 8.15L264.08 8.09ZM280.01 6.33L278.78 6.16L278.80 5.89L281.91 5.89L281.88 6.16L280.72 6.32L280.72 9.95L285.63 9.95L285.63 6.33L284.38 6.16L284.42 5.89L287.53 5.89L287.48 6.16L286.34 6.32L286.34 13.95L287.59 14.08L287.54 14.40L284.44 14.40L284.50 14.11L285.63 13.90L285.63 10.36L280.72 10.36L280.72 13.95L282.00 14.08L281.92 14.40L278.83 14.40L278.87 14.11L280.01 13.90L280.01 6.33ZM296.52 6.36L295.30 6.18L295.35 5.89L301.54 5.89L301.33 8.07L301.01 8.03L300.88 6.24L297.23 6.24L297.23 9.89L299.52 9.89L299.78 8.94L300.15 8.89L299.92 11.55L299.57 11.61L299.46 10.26L297.23 10.26L297.23 14.03L301.08 14.03L301.58 12.19L301.86 12.26L301.66 14.40L295.32 14.40L295.36 14.11L296.52 13.90L296.52 6.36ZM319.55 8.09L319.48 5.89L326.54 5.89L326.30 8.16L325.96 8.12L325.84 6.24L323.31 6.24L323.31 13.90L324.52 14.08L324.44 14.40L321.34 14.40L321.38 14.11L322.57 13.90L322.57 6.24L320.14 6.24L319.90 8.15L319.55 8.09ZM336.07 6.18L336.07 10.11L337.62 10.11Q338.30 9.86 338.76 9.28Q339.22 8.70 339.22 8.02L339.22 8.02Q339.22 7.11 338.60 6.63Q337.98 6.15 336.90 6.15L336.90 6.15L336.07 6.18ZM337.44 14.40L334.25 14.40L334.30 14.11L335.36 13.90L335.36 6.51L334.27 6.37L334.33 6.13Q336.16 5.83 337.24 5.83L337.24 5.83Q338.00 5.83 338.61 6.05Q339.22 6.27 339.60 6.73Q339.97 7.19 339.97 7.83L339.97 7.83Q339.97 8.57 339.54 9.14Q339.12 9.72 338.08 10.23L338.08 10.23L338.08 10.23L339.40 12.19Q340.12 13.23 340.46 13.58Q340.81 13.92 341.19 14.05L341.19 14.05L341.52 14.16L341.48 14.42Q341.18 14.52 340.84 14.52L340.84 14.52Q340.55 14.52 340.30 14.40Q340.05 14.28 339.80 14.01Q339.56 13.75 339.38 13.48Q339.19 13.22 338.92 12.77L338.92 12.77L337.53 10.49L336.07 10.49L336.07 13.95L337.51 14.08L337.44 14.40ZM350.42 6.33L349.18 6.16L349.21 5.89L352.31 5.89L352.28 6.16L351.13 6.32L351.13 11.01Q351.13 11.87 351.31 12.49Q351.49 13.10 351.84 13.45Q352.19 13.79 352.64 13.95Q353.08 14.11 353.67 14.11L353.67 14.11Q354.85 14.11 355.49 13.40Q356.13 12.68 356.13 11.33L356.13 11.33L356.13 6.33L354.86 6.16L354.89 5.89L357.80 5.89L357.75 6.16L356.61 6.32L356.59 11.05Q356.58 12.78 355.84 13.68Q355.11 14.58 353.45 14.58L353.45 14.58Q352.95 14.58 352.52 14.49Q352.10 14.40 351.70 14.16Q351.31 13.93 351.03 13.56Q350.75 13.19 350.58 12.60Q350.42 12.01 350.42 11.24L350.42 11.24L350.42 6.33ZM365.54 8.09L365.48 5.89L372.54 5.89L372.30 8.16L371.96 8.12L371.84 6.24L369.30 6.24L369.30 13.90L370.51 14.08L370.44 14.40L367.34 14.40L367.38 14.11L368.57 13.90L368.57 6.24L366.14 6.24L365.90 8.15L365.54 8.09ZM381.47 6.33L380.24 6.16L380.26 5.89L383.38 5.89L383.35 6.16L382.19 6.32L382.19 9.95L387.10 9.95L387.10 6.33L385.84 6.16L385.89 5.89L389.00 5.89L388.94 6.16L387.80 6.32L387.80 13.95L389.05 14.08L389.01 14.40L385.91 14.40L385.96 14.11L387.10 13.90L387.10 10.36L382.19 10.36L382.19 13.95L383.46 14.08L383.39 14.40L380.30 14.40L380.33 14.11L381.47 13.90L381.47 6.33ZM408.57 6.15L408.57 9.75L410.69 9.75Q411.15 9.45 411.48 9.01Q411.82 8.57 411.82 8.02L411.82 8.02Q411.82 7.08 411.18 6.59Q410.54 6.11 409.40 6.11L409.40 6.11Q408.75 6.11 408.57 6.15L408.57 6.15ZM408.57 10.08L408.57 14.03L410.25 14.03Q410.89 14.03 411.35 13.85Q411.80 13.68 412.05 13.38Q412.29 13.08 412.40 12.74Q412.51 12.41 412.51 12.02L412.51 12.02Q412.51 11.68 412.40 11.36Q412.29 11.04 412.05 10.74Q411.81 10.45 411.37 10.26Q410.92 10.08 410.32 10.08L410.32 10.08L408.57 10.08ZM409.58 14.40L406.67 14.40L406.72 14.11L407.88 13.90L407.88 6.51L406.70 6.36L406.77 6.12Q406.90 6.10 407.33 6.03Q407.77 5.96 407.94 5.94Q408.12 5.91 408.47 5.87Q408.83 5.83 409.14 5.82Q409.45 5.80 409.80 5.80L409.80 5.80Q411.09 5.80 411.80 6.38Q412.51 6.96 412.51 7.79L412.51 7.79Q412.51 8.98 411.10 9.76L411.10 9.76L411.10 9.80Q412.09 9.86 412.66 10.46Q413.23 11.05 413.23 11.80L413.23 11.80Q413.23 12.22 413.13 12.58Q413.03 12.95 412.76 13.29Q412.50 13.63 412.10 13.87Q411.69 14.11 411.05 14.25Q410.40 14.40 409.58 14.40L409.58 14.40ZM425.00 6.98L423.64 10.75L426.32 10.75L425.00 6.98ZM423.68 14.40L420.96 14.40L420.99 14.11L421.96 13.90L424.96 5.82L425.32 5.73L428.16 13.95L429.06 14.08L429.00 14.39L426.21 14.39L426.27 14.10L427.40 13.90L426.45 11.13L423.50 11.13L422.49 13.95L423.75 14.08L423.68 14.40ZM436.78 10.25L436.78 10.25Q436.78 9.73 436.88 9.21Q436.99 8.68 437.19 8.17Q437.39 7.66 437.72 7.22Q438.05 6.77 438.46 6.44Q438.87 6.10 439.43 5.90Q439.99 5.71 440.62 5.71L440.62 5.71Q442.04 5.71 442.95 6.39L442.95 6.39L442.74 8.70L442.42 8.64L442.21 6.87Q441.62 6.09 440.30 6.09L440.30 6.09Q439.15 6.09 438.33 7.19Q437.50 8.30 437.50 10.00L437.50 10.00Q437.50 11.92 438.30 12.97Q439.11 14.03 440.58 14.03L440.58 14.03Q441.31 14.03 442.00 13.65Q442.70 13.28 443.17 12.74L443.17 12.74L443.32 12.99Q443.15 13.25 442.87 13.51Q442.58 13.77 442.19 14.02Q441.81 14.27 441.30 14.42Q440.79 14.57 440.27 14.57L440.27 14.57Q438.70 14.57 437.74 13.40Q436.78 12.22 436.78 10.25ZM453.29 10.27L453.28 10.17Q453.92 9.47 454.28 9.04L454.28 9.04L456.54 6.33L455.36 6.16L455.39 5.89L458.17 5.89L458.15 6.16L457.11 6.32L453.99 10.10L455.78 12.20Q456.57 13.13 457.07 13.54Q457.58 13.94 458.16 14.03L458.16 14.03L458.53 14.08L458.45 14.38Q458.45 14.38 458.32 14.42L458.32 14.42Q458.18 14.46 458.13 14.48Q458.08 14.50 458.01 14.52Q457.94 14.53 457.87 14.54Q457.80 14.55 457.72 14.55L457.72 14.55Q457.39 14.55 457.10 14.43Q456.80 14.31 456.48 14.03Q456.17 13.75 455.95 13.51Q455.74 13.28 455.36 12.82L455.36 12.82L453.29 10.27ZM452.17 6.33L450.99 6.16L451.02 5.89L454.09 5.89L454.07 6.16L452.91 6.32L452.91 13.95L454.18 14.08L454.10 14.40L451.06 14.40L451.10 14.11L452.17 13.90L452.17 6.33ZM466.35 13.92L466.35 13.92Q466.35 13.25 466.78 13.25Q467.21 13.25 467.21 13.92L467.21 13.92Q467.21 14.62 466.78 14.62Q466.35 14.62 466.35 13.92Z"></path></g></svg>